<?xml version="1.0" encoding="UTF-8" standalone="no"?>
<svg xmlns:dc="http://purl.org/dc/elements/1.1/" xmlns:cc="http://creativecommons.org/ns#" xmlns:rdf="http://www.w3.org/1999/02/22-rdf-syntax-ns#" xmlns:svg="http://www.w3.org/2000/svg" xmlns="http://www.w3.org/2000/svg" viewBox="0 0 1213.8973 869.59869" height="869.59869" width="1213.8973" xml:space="preserve" id="svg2" version="1.1"><metadata id="metadata8"><rdf:RDF><cc:Work rdf:about=""><dc:format>image/svg+xml</dc:format><dc:type rdf:resource="http://purl.org/dc/dcmitype/StillImage"/></cc:Work></rdf:RDF></metadata><defs id="defs6"><clipPath id="clipPath24" clipPathUnits="userSpaceOnUse"><path id="path22" d="M 0,652.199 H 910.423 V 0 H 0 Z"/></clipPath><clipPath id="clipPath98" clipPathUnits="userSpaceOnUse"><path id="path96" d="m 410.079,524.99 c -10.474,-1.533 -20.82,-3.589 -31.007,-6.155 v 0 c -1.763,-0.444 -3.236,-1.745 -3.894,-3.439 v 0 c -0.047,-0.124 -0.426,-0.943 -0.378,-2.258 v 0 c 0.024,-0.682 0.051,-1.363 0.08,-2.042 v 0 c 0.305,-7.094 0.861,-14.095 1.649,-21.002 v 0 h 14.119 c -0.647,5.505 -1.14,10.889 -1.467,16.089 v 0 c -0.031,0.5 -0.061,0.997 -0.089,1.492 v 0 c -0.057,1.005 0.233,1.659 0.27,1.756 v 0 c 0.075,0.198 0.165,0.391 0.269,0.575 v 0 c 0.571,1.016 1.556,1.784 2.765,2.056 v 0 c 8.349,1.88 16.89,3.426 25.56,4.597 v 0 c 12.498,1.688 25.265,2.595 38.118,2.595 v 0 c 12.639,0 25.322,-0.906 37.794,-2.595 v 0 c 0.167,-0.023 0.335,-0.046 0.502,-0.069 v 0 c 8.469,-1.162 16.838,-2.684 25.027,-4.527 v 0 c 1.01,-0.227 1.861,-0.799 2.448,-1.573 v 0 c 0.262,-0.345 0.472,-0.73 0.619,-1.142 v 0 c 0.186,-0.523 0.271,-1.088 0.238,-1.672 v 0 c 3.46,1.294 11.678,4.314 14.642,5.42 v 0 c 0.028,0.75 -0.092,1.476 -0.336,2.148 v 0 c -0.637,1.744 -2.129,3.092 -3.927,3.548 v 0 c -9.482,2.405 -19.064,4.373 -28.733,5.86 v 0 c -13.098,2.015 -29.486,3.672 -48.274,3.672 v 0 c -15.536,0 -30.898,-1.124 -45.995,-3.334"/></clipPath><clipPath id="clipPath170" clipPathUnits="userSpaceOnUse"><path id="path168" d="M 0,652.199 H 910.423 V 0 H 0 Z"/></clipPath></defs><g transform="matrix(1.3333333,0,0,-1.3333333,0,869.59867)" id="g10"><path id="path12" style="fill:#202944;fill-opacity:1;fill-rule:nonzero;stroke:none" d="M 0,0 H 910.423 V 652.198 H 0 Z"/><g transform="translate(200.4441,128.0041)" id="g14"><path id="path16" style="fill:#8a7e71;fill-opacity:1;fill-rule:nonzero;stroke:none" d="M 0,0 -5.099,-8.159 H 6.134 L 1,0 Z m 9.976,-14.618 -2.312,3.807 H -6.629 l -2.346,-3.807 h -4.283 L -1.87,3.264 h 4.91 l 11.355,-17.882 z"/></g><g id="g18"><g clip-path="url(#clipPath24)" id="g20"><g transform="translate(256.6926,113.216)" id="g26"><path id="path28" style="fill:#8a7e71;fill-opacity:1;fill-rule:nonzero;stroke:none" d="m 0,0 c -4.147,0 -5.27,0.646 -5.27,4.997 v 13.055 h 3.842 V 4.42 c 0,-1.122 0.374,-1.292 1.666,-1.292 h 12.845 c 1.326,0 1.7,0.17 1.7,1.292 V 18.052 H 18.59 V 4.997 C 18.59,0.68 17.435,0 13.253,0 Z"/></g><g transform="translate(322.1584,113.386)" id="g30"><path id="path32" style="fill:#8a7e71;fill-opacity:1;fill-rule:nonzero;stroke:none" d="m 0,0 v 14.959 h -10.553 v 2.923 H 14.292 V 14.959 H 3.841 L 3.841,0 Z"/></g><g transform="translate(393.9807,127.1887)" id="g34"><path id="path36" style="fill:#8a7e71;fill-opacity:1;fill-rule:nonzero;stroke:none" d="m 0,0 c 0,1.122 -0.374,1.326 -1.666,1.326 h -14.17 c -1.292,0 -1.632,-0.204 -1.632,-1.326 v -9.553 c 0,-1.122 0.374,-1.292 1.632,-1.292 h 14.17 c 1.292,0 1.666,0.17 1.666,1.292 z m -15.769,-13.973 c -3.977,0 -5.541,0.783 -5.541,4.964 v 8.295 c 0,4.148 1.564,4.963 5.541,4.963 h 14.035 c 3.978,0 5.542,-0.815 5.542,-4.963 v -8.295 c 0,-4.181 -1.496,-4.964 -5.542,-4.964 z"/></g><g transform="translate(460.656,113.386)" id="g38"><path id="path40" style="fill:#8a7e71;fill-opacity:1;fill-rule:nonzero;stroke:none" d="m 0,0 v 10.267 c 0,1.36 0.034,2.686 0.068,3.467 H -0.033 L -9.583,1.332 h -0.95 l -9.587,12.402 h -0.102 c 0.068,-0.849 0.102,-2.107 0.102,-3.399 V 0 h -3.808 v 17.882 h 4.59 l 9.295,-12.266 h 0.068 L -0.68,17.882 H 3.808 L 3.808,0 Z"/></g><g transform="translate(524.7146,127.1887)" id="g42"><path id="path44" style="fill:#8a7e71;fill-opacity:1;fill-rule:nonzero;stroke:none" d="m 0,0 c 0,1.122 -0.374,1.326 -1.666,1.326 h -14.17 c -1.292,0 -1.633,-0.204 -1.633,-1.326 v -9.553 c 0,-1.122 0.374,-1.292 1.633,-1.292 h 14.17 c 1.292,0 1.666,0.17 1.666,1.292 z m -15.769,-13.973 c -3.977,0 -5.541,0.783 -5.541,4.964 v 8.295 c 0,4.148 1.564,4.963 5.541,4.963 h 14.036 c 3.977,0 5.541,-0.815 5.541,-4.963 v -8.295 c 0,-4.181 -1.496,-4.964 -5.541,-4.964 z"/></g><g transform="translate(586.3923,119.9475)" id="g46"><path id="path48" style="fill:#8a7e71;fill-opacity:1;fill-rule:nonzero;stroke:none" d="M 0,0 C 0,1.155 -0.408,1.359 -1.699,1.359 H -15.19 v -4.895 h 13.491 c 1.291,0 1.699,0.204 1.699,1.394 z m 0,7.071 c 0,1.19 -0.374,1.394 -1.699,1.394 H -15.19 V 3.943 H -1.563 C -0.441,3.943 0,4.182 0,5.304 Z m 3.74,-9.485 c 0,-3.298 -1.803,-4.148 -5.303,-4.148 H -18.93 V 11.32 h 17.264 c 3.978,0 5.236,-0.883 5.236,-4.181 V 5.609 C 3.57,4.283 3.229,3.094 1.598,2.754 V 2.686 C 3.06,2.38 3.74,1.359 3.74,-0.306 Z"/></g><path id="path50" style="fill:#8a7e71;fill-opacity:1;fill-rule:nonzero;stroke:none" d="m 629.494,131.268 h 3.841 v -17.882 h -3.841 z"/><g transform="translate(673.4783,113.386)" id="g52"><path id="path54" style="fill:#8a7e71;fill-opacity:1;fill-rule:nonzero;stroke:none" d="M 0,0 V 17.882 H 3.841 V 3.128 h 17.571 l 0,-3.128 z"/></g><path id="path56" style="fill:#8a7e71;fill-opacity:1;fill-rule:nonzero;stroke:none" d="m 732.382,131.268 h 3.841 v -17.882 h -3.841 z"/><g transform="translate(725.6223,239.9929)" id="g58"><path id="path60" style="fill:#ffffff;fill-opacity:1;fill-rule:nonzero;stroke:none" d="m 0,0 c -13.516,0 -24.816,-1.468 -32.681,-7.082 -7.423,-5.3 -11.511,-12.852 -11.511,-21.265 0,-16.457 16.009,-28.346 35.687,-28.346 H 5.653 c 0.561,0 1.11,0.166 1.576,0.478 l 4.55,3.043 c 0.137,0.092 0.199,0.26 0.156,0.419 -0.044,0.158 -0.185,0.277 -0.349,0.279 -18.181,0.232 -32.948,8.576 -32.948,22.241 0,14.01 13.098,23.064 33.371,23.064 h 51.076 c 0.753,0 1.475,0.299 2.007,0.833 L 71.412,0 Z"/></g><g transform="translate(567.1731,239.1618)" id="g62"><path id="path64" style="fill:#ffffff;fill-opacity:1;fill-rule:nonzero;stroke:none" d="m 0,0 -30.351,-30.352 h 12.289 c 0.751,0 1.472,0.3 2.003,0.831 L 6.158,-7.305 c 0.775,0.776 2.031,0.776 2.806,0 l 47.727,-47.726 c 0.534,-0.532 1.254,-0.832 2.004,-0.832 H 84.433 L 28.57,0 C 28.039,0.532 27.318,0.83 26.566,0.83 H 2.004 C 1.252,0.83 0.531,0.532 0,0"/></g><g transform="translate(466.9748,239.4216)" id="g66"><path id="path68" style="fill:#ffffff;fill-opacity:1;fill-rule:nonzero;stroke:none" d="m 0,0 -42.336,-31.902 c -0.707,-0.534 -1.681,-0.534 -2.388,-0.002 L -87.129,0.001 c -0.491,0.37 -1.089,0.57 -1.704,0.57 h -30.704 l 66.915,-50.346 c 0.707,-0.533 1.681,-0.532 2.387,10e-4 l 50.623,38.146 c 0.559,0.421 1.362,0.023 1.362,-0.68 V -56.123 H 24.593 V 0.571 H 1.706 C 1.09,0.571 0.492,0.369 0,0"/></g><path id="path70" style="fill:#ffffff;fill-opacity:1;fill-rule:nonzero;stroke:none" d="m 285.174,183.299 h 22.843 v 56.694 h -22.843 z"/><g transform="translate(175.0344,213.1443)" id="g72"><path id="path74" style="fill:#ffffff;fill-opacity:1;fill-rule:nonzero;stroke:none" d="m 0,0 c -1.01,0 -1.516,-1.221 -0.801,-1.935 l 27.08,-27.081 c 0.531,-0.53 1.252,-0.83 2.004,-0.83 h 25.738 l -21.838,21.83 c -0.505,0.506 -0.199,1.372 0.511,1.449 l 9.226,0.742 c 15.799,1.693 23.18,8.117 23.18,17.083 0,10.701 -10.06,15.591 -30.335,15.591 h -96.411 l 7.135,-6.349 c 0.531,-0.526 1.248,-0.821 1.994,-0.821 h 74.618 c 15.145,0 20.157,-3.577 20.157,-9.838 0,-5.843 -7.104,-9.218 -22.141,-9.478 C 1.557,0.044 0,0 0,0"/></g><g transform="translate(471.7004,451.9738)" id="g76"><path id="path78" style="fill:#202944;fill-opacity:1;fill-rule:nonzero;stroke:none" d="m 0,0 -7.572,-0.809 c -0.775,-0.083 -1.109,-1.028 -0.557,-1.579 l 37.387,-37.38 c 13.394,31.496 20.082,66.381 21.744,95.469 0.119,2.073 -1.279,3.932 -3.305,4.388 -20.404,4.593 -41.929,7.192 -63.5,7.192 -21.593,0 -43.119,-2.604 -63.501,-7.192 -2.03,-0.457 -3.423,-2.311 -3.304,-4.388 0.323,-5.659 0.85,-11.549 1.566,-17.581 h 73.241 c 20.709,0 33.072,-6.579 33.072,-18.247 C 25.271,9.759 16.06,1.721 0,0"/></g><g transform="translate(491.3777,392.4489)" id="g80"><path id="path82" style="fill:#202944;fill-opacity:1;fill-rule:nonzero;stroke:none" d="m 0,0 v 0 l -63.768,63.766 c -0.252,0.252 -0.363,0.561 -0.363,0.865 0,0.636 0.493,1.245 1.237,1.245 l 19.447,0.003 c 21.395,0 24.138,6.981 24.138,11.974 0,4.995 -2.743,11.977 -24.138,11.977 h -56.252 v 0 h -9.871 -4.27 l 15.465,-8.297 c 7.689,-44.517 26.205,-93.744 60.115,-123.138 1.599,-1.387 3.965,-1.383 5.564,0.003 12,10.403 22.071,23.291 30.419,37.574 l 9.375,-3.165 c 0.013,0.019 0.027,0.037 0.04,0.056 z"/></g><g transform="translate(489.0842,388.427)" id="g84"><path id="path86" style="fill:#9a8a7b;fill-opacity:1;fill-rule:nonzero;stroke:none" d="m 0,0 c -8.346,-14.282 -18.404,-27.178 -30.402,-37.58 -1.6,-1.386 -3.965,-1.39 -5.565,-0.003 -33.91,29.394 -52.43,78.623 -60.118,123.14 l -15.462,8.295 h -0.015 c 7.979,-55.986 32.437,-104.886 74.985,-139.315 2.077,-1.681 5.048,-1.685 7.124,-0.004 15.199,12.3 28.13,26.511 38.845,42.296 z"/></g><g transform="translate(389.092,507.6745)" id="g88"><path id="path90" style="fill:#9a8a7b;fill-opacity:1;fill-rule:nonzero;stroke:none" d="m 0,0 c -0.119,2.078 1.274,3.931 3.305,4.388 20.381,4.589 41.908,7.192 63.5,7.192 21.571,0 43.096,-2.599 63.501,-7.192 2.026,-0.456 3.423,-2.315 3.304,-4.388 -1.661,-29.087 -8.348,-63.976 -21.739,-95.473 l 8.593,-8.592 c 17.122,32.002 26.332,69.216 27.788,109.487 0.097,2.665 -1.678,5.041 -4.263,5.696 -11.142,2.826 -39.217,9.532 -77.008,9.532 -26.314,0 -52.131,-3.225 -77.001,-9.489 -2.594,-0.654 -4.369,-3.024 -4.272,-5.698 0.28,-7.792 0.866,-15.475 1.729,-23.044 H 1.564 C 0.849,-11.549 0.323,-5.66 0,0"/></g></g></g><g id="g92"><g clip-path="url(#clipPath98)" id="g94"><g id="g100"><g transform="scale(1,-1)" id="g102"><g id="g104"><path id="path106" style="fill:#9a8a7b;fill-opacity:1;fill-rule:nonzero;stroke:none" d="m 390.64755,-490.094 c -2.63086,0 -12.31492,0 -14.11862,0 -0.39356,-3.45361 -0.72998,-6.93066 -1.00537,-10.43066 2.11572,0.45313 11.23825,1.69141 14.27145,2.27197 0.24512,2.68408 0.52978,5.40674 0.85254,8.15869 z"/><path id="path108" style="fill:#978879;fill-opacity:1;fill-rule:nonzero;stroke:none" d="m 389.79501,-498.25269 c -3.0332,-0.58056 -12.15573,-1.81884 -14.27145,-2.27197 -0.13819,-1.75049 -0.26074,-3.50634 -0.36817,-5.26806 2.33056,0.76513 10.99266,2.56347 14.30222,3.54297 0.10254,1.32226 0.21484,2.65478 0.3374,3.99706 z"/><path id="path110" style="fill:#938475;fill-opacity:1;fill-rule:nonzero;stroke:none" d="m 389.45761,-502.24975 c -3.30956,-0.9795 -11.97166,-2.77784 -14.30222,-3.54297 -0.10742,-1.76172 -0.19921,-3.5293 -0.27539,-5.30273 2.42822,0.90673 10.8657,3.75048 14.30124,4.91162 0.082,1.2998 0.17432,2.61181 0.27637,3.93408 z"/><path id="path112" style="fill:#8b7d6f;fill-opacity:1;fill-rule:nonzero;stroke:none" d="m 389.18124,-506.18383 c -0.0312,-0.49903 -0.061,-0.9961 -0.0894,-1.49121 -3.5415,-1.4751 -12.12742,-4.47022 -14.29245,-5.46289 0.0249,0.68164 0.0518,1.36279 0.0806,2.04248 2.42822,0.90673 10.8657,3.75048 14.30124,4.91162 z"/><path id="path114" style="fill:#837769;fill-opacity:1;fill-rule:nonzero;stroke:none" d="m 389.09189,-507.67504 c -3.5415,-1.4751 -12.12742,-4.47022 -14.29245,-5.46289 -0.0234,-0.6582 0.0591,-1.19141 0.15381,-1.57617 2.18114,1.03759 10.65525,4.2788 14.23825,5.82031 -0.0698,0.30127 -0.12842,0.7163 -0.0996,1.21875 z"/><path id="path116" style="fill:#7d7265;fill-opacity:1;fill-rule:nonzero;stroke:none" d="m 389.1915,-508.89379 c -3.583,-1.54151 -12.05711,-4.78272 -14.23825,-5.82031 0.0947,-0.38428 0.20166,-0.61963 0.22558,-0.68213 2.19726,1.08252 10.55857,4.35693 14.18259,5.96533 -0.0181,0.0478 -0.1001,0.23584 -0.16992,0.53711 z"/><path id="path118" style="fill:#7b6f63;fill-opacity:1;fill-rule:nonzero;stroke:none" d="m 389.36142,-509.4309 c 0.0757,-0.19873 0.16552,-0.39112 0.26904,-0.57471 -3.80224,-1.7417 -11.6738,-4.90722 -14.10739,-6.11621 -0.13135,0.23194 -0.24707,0.47461 -0.34424,0.72559 2.19726,1.08252 10.55857,4.35693 14.18259,5.96533 z"/><path id="path120" style="fill:#796e61;fill-opacity:1;fill-rule:nonzero;stroke:none" d="m 389.63046,-510.00561 c -3.80224,-1.7417 -11.6738,-4.90722 -14.10739,-6.11621 0.37793,-0.66797 0.88965,-1.25195 1.49462,-1.71582 3.05371,1.53711 9.49852,4.43457 13.75681,6.52441 -0.46875,0.35303 -0.85791,0.79932 -1.14404,1.30762 z"/><path id="path122" style="fill:#746a5d;fill-opacity:1;fill-rule:nonzero;stroke:none" d="m 390.7745,-511.31323 c -4.25829,-2.08984 -10.7031,-4.9873 -13.75681,-6.52441 0.60498,-0.46435 1.30322,-0.80859 2.0542,-0.99755 3.67382,1.86523 8.61131,4.33398 13.32468,6.77245 -0.60498,0.13623 -1.15332,0.396 -1.62207,0.74951 z"/><path id="path124" style="fill:#73685c;fill-opacity:1;fill-rule:nonzero;stroke:none" d="m 392.39657,-512.06274 c 8.34861,-1.87939 16.88912,-3.42578 25.56,-4.59667 -2.98876,-2.65235 -5.54784,-6.0415 -7.87742,-8.33105 -10.4741,1.5332 -20.82027,3.58935 -31.00726,6.15527 3.67382,1.86523 8.61131,4.33398 13.32468,6.77245 z"/><path id="path126" style="fill:#73685c;fill-opacity:1;fill-rule:nonzero;stroke:none" d="m 417.95657,-516.65941 c 12.49704,-1.6875 25.26459,-2.59522 38.1171,-2.59522 0,-3.02343 0,-6.04589 0,-9.06982 -15.53561,0 -30.89788,1.12403 -45.99452,3.33399 2.32958,2.28955 4.88866,5.6787 7.87742,8.33105 z"/><path id="path128" style="fill:#72685c;fill-opacity:1;fill-rule:nonzero;stroke:none" d="m 456.07367,-519.25463 c 0,-3.02343 0,-6.04589 0,-9.06982 9.27049,0 17.95651,0.40332 25.95112,1.0542 -1.5039,2.78613 -5.35057,5.81933 -6.99168,8.68017 -6.30956,-0.4375 -12.64011,-0.66455 -18.95944,-0.66455 z"/><path id="path130" style="fill:#6f6459;fill-opacity:1;fill-rule:nonzero;stroke:none" d="m 475.03311,-518.59008 c 1.64111,-2.86084 5.48778,-5.89404 6.99168,-8.68017 7.99461,0.65088 15.29782,1.54883 21.80366,2.53809 -3.00829,2.54882 -6.67869,5.37499 -9.96042,8.07372 -6.23583,-0.84472 -12.52488,-1.49365 -18.83492,-1.93164 z"/><path id="path132" style="fill:#6b6156;fill-opacity:1;fill-rule:nonzero;stroke:none" d="m 493.86803,-516.65844 c 0.16699,0.0225 0.33447,0.0454 0.50195,0.0684 3.2871,-2.69482 6.96824,-5.51953 9.978,-8.06249 -0.17285,-0.0269 -0.3457,-0.0532 -0.51953,-0.0796 -3.00829,2.54882 -6.67869,5.37499 -9.96042,8.07372 z"/><path id="path134" style="fill:#6b6156;fill-opacity:1;fill-rule:nonzero;stroke:none" d="m 494.36998,-516.59008 c 4.23436,0.58057 8.44383,1.25147 12.61862,2.00781 1.94775,-1.23632 4.01611,-2.54003 6.03759,-3.81884 -4.49999,-0.85742 -9.02879,-1.61524 -13.56345,-2.27735 -1.70703,1.36084 -3.44921,2.74073 -5.09276,4.08838 z"/><path id="path136" style="fill:#6a6055;fill-opacity:1;fill-rule:nonzero;stroke:none" d="m 499.46274,-520.67846 c 1.70752,-1.36083 3.38036,-2.70263 4.88524,-3.97411 2.41699,0.37158 4.82861,0.77343 7.23485,1.20459 -1.58496,1.22851 -3.43603,2.52148 -5.32518,3.83495 -2.26172,-0.37939 -4.52734,-0.73437 -6.79491,-1.06543 z"/><path id="path138" style="fill:#6a6155;fill-opacity:1;fill-rule:nonzero;stroke:none" d="m 506.25765,-519.61303 c 1.88915,-1.31347 3.74022,-2.60644 5.32518,-3.83495 2.40625,0.43115 4.80712,0.8916 7.20165,1.38085 -1.76221,1.13477 -3.73681,2.3877 -5.75829,3.66602 -2.25,-0.42871 -4.50732,-0.83252 -6.76854,-1.21192 z"/><path id="path140" style="fill:#6b6256;fill-opacity:1;fill-rule:nonzero;stroke:none" d="m 506.9886,-514.58227 c 1.94775,-1.23632 4.01611,-2.54003 6.03759,-3.81884 2.2495,0.42871 4.49218,0.88281 6.72459,1.3623 -2.1582,1.23193 -4.37059,2.49414 -6.52782,3.65381 -2.06835,-0.41992 -4.14696,-0.81934 -6.23436,-1.19727 z"/><path id="path142" style="fill:#6c6357;fill-opacity:1;fill-rule:nonzero;stroke:none" d="m 513.22296,-513.385 c 2.15723,-1.15967 4.36962,-2.42188 6.52782,-3.65381 2.23242,0.479 4.45409,0.98389 6.66307,1.51514 -2.35302,1.15185 -4.76463,2.33544 -7.01658,3.46044 -2.04736,-0.46093 -4.10595,-0.90185 -6.17431,-1.32177 z"/><path id="path144" style="fill:#6b6256;fill-opacity:1;fill-rule:nonzero;stroke:none" d="m 513.02619,-518.40111 c 2.02148,-1.27832 3.99608,-2.53125 5.75829,-3.66602 2.39452,0.48926 4.78368,1.00733 7.16648,1.55323 -1.93896,1.04052 -4.04247,2.24267 -6.20018,3.47509 -2.23241,-0.47949 -4.47509,-0.93359 -6.72459,-1.3623 z"/><path id="path146" style="fill:#6f6559;fill-opacity:1;fill-rule:nonzero;stroke:none" d="m 519.75078,-517.03881 c 2.15771,-1.23242 4.26122,-2.43457 6.20018,-3.47509 2.38281,0.54589 4.75927,1.11962 7.12938,1.72119 -2.01904,0.99755 -4.31346,2.11718 -6.66649,3.26904 -2.20898,-0.53125 -4.43065,-1.03614 -6.66307,-1.51514 z"/><path id="path148" style="fill:#6f6559;fill-opacity:1;fill-rule:nonzero;stroke:none" d="m 519.39727,-512.06323 c 4.50438,-2.25048 9.645,-4.73486 13.68307,-6.72948 0.31446,0.0796 0.61914,0.18652 0.91113,0.31787 -3.96385,1.9331 -9.43552,4.46142 -13.86862,6.64452 -0.23095,-0.0977 -0.47314,-0.17626 -0.72558,-0.23291 z"/><path id="path150" style="fill:#70665a;fill-opacity:1;fill-rule:nonzero;stroke:none" d="m 520.12285,-511.83032 c 4.4331,-2.1831 9.90477,-4.71142 13.86862,-6.64452 0.29248,0.13134 0.57276,0.28711 0.83789,0.46533 -3.80175,1.79687 -9.77439,4.49218 -14.04977,6.52783 -0.20606,-0.13428 -0.42578,-0.25098 -0.65674,-0.34864 z"/><path id="path152" style="fill:#746a5d;fill-opacity:1;fill-rule:nonzero;stroke:none" d="m 520.77959,-511.48168 c 0.4126,0.26806 0.77197,0.60449 1.06543,0.99121 2.02343,-0.91065 4.72411,-2.06299 7.36473,-3.18848 -0.33936,-0.44824 -0.75488,-0.84131 -1.22754,-1.15625 -2.50292,1.15283 -5.06493,2.33594 -7.20262,3.35352 z"/><path id="path154" style="fill:#7e7265;fill-opacity:1;fill-rule:nonzero;stroke:none" d="m 527.98221,-514.8352 c 0.47266,0.31494 0.88818,0.70801 1.22754,1.15625 2.64062,-1.125 5.22069,-2.22216 7.0034,-3.02148 -0.38477,-0.51025 -0.854,-0.95361 -1.38379,-1.30908 -1.90087,0.89844 -4.34471,2.02148 -6.84715,3.17431 z"/><path id="path156" style="fill:#807467;fill-opacity:1;fill-rule:nonzero;stroke:none" d="m 521.84502,-510.49047 c 0.13086,0.17236 0.24902,0.35498 0.35205,0.5459 1.96386,-0.85645 4.71971,-1.99659 7.41453,-3.11035 -0.11865,-0.21827 -0.25342,-0.42725 -0.40185,-0.62403 -2.64062,1.12549 -5.3413,2.27783 -7.36473,3.18848 z"/><path id="path158" style="fill:#8a7d6f;fill-opacity:1;fill-rule:nonzero;stroke:none" d="m 529.20975,-513.67895 c 0.14843,0.19678 0.2832,0.40576 0.40185,0.62403 2.69531,-1.11329 5.32958,-2.2002 7.05126,-2.94971 -0.13282,-0.24316 -0.2837,-0.47559 -0.44971,-0.6958 -1.78271,0.79932 -4.36278,1.89648 -7.0034,3.02148 z"/><path id="path160" style="fill:#86796c;fill-opacity:1;fill-rule:nonzero;stroke:none" d="m 522.19707,-509.94457 c 3.92772,-1.71289 11.02292,-4.56104 14.46579,-6.06006 0.13281,0.24365 0.24804,0.49756 0.34423,0.76025 -3.32079,1.39844 -10.73533,4.29102 -14.54391,5.89648 -0.0737,-0.20654 -0.1626,-0.40576 -0.26611,-0.59667 z"/><path id="path162" style="fill:#8b7e70;fill-opacity:1;fill-rule:nonzero;stroke:none" d="m 522.46318,-509.3479 c 0.18603,0.52247 0.27197,1.08838 0.23877,1.67237 3.45995,-1.29444 11.6782,-4.31494 14.64157,-5.42139 0.0283,-0.74902 -0.0918,-1.47558 -0.33643,-2.14746 -3.32079,1.39844 -10.73533,4.29102 -14.54391,5.89648 z"/></g></g></g></g></g><g id="g164"><g clip-path="url(#clipPath170)" id="g166"><g transform="translate(509.5564,403.6096)" id="g172"><path id="path174" style="fill:#ffffff;fill-opacity:1;fill-rule:nonzero;stroke:none" d="m 0,0 -45.985,45.977 c -0.552,0.55 -0.218,1.495 0.557,1.578 l 7.572,0.809 c 16.06,1.721 25.271,9.76 25.271,19.873 0,11.668 -12.363,18.247 -33.072,18.247 h -87.37 c -0.864,7.569 -1.449,15.252 -1.73,23.044 -0.096,2.674 1.679,5.044 4.273,5.698 24.87,6.264 50.687,9.489 77.001,9.489 37.791,0 65.865,-6.706 77.008,-9.532 2.584,-0.655 4.36,-3.031 4.263,-5.696 C 26.332,69.216 17.122,32.002 0,0 m -49.925,-60.65 c -2.076,-1.681 -5.048,-1.676 -7.124,0.004 -42.548,34.43 -67.006,83.33 -74.985,139.315 h 70.408 c 21.395,0 24.138,-6.981 24.138,-11.977 0,-4.993 -2.743,-11.974 -24.138,-11.974 l -19.446,-0.003 c -0.745,0 -1.238,-0.609 -1.238,-1.245 0,-0.303 0.112,-0.613 0.364,-0.865 l 70.905,-70.903 C -21.763,-34.104 -34.708,-48.335 -49.925,-60.65 m 83.887,188.478 c -27.659,7.747 -57.72,12.262 -87.445,12.2 -29.71,0.062 -59.77,-4.448 -87.446,-12.2 -1.939,-0.544 -3.275,-2.307 -3.276,-4.321 -0.045,-73.987 27.747,-165.539 88.227,-205.934 1.51,-1.008 3.479,-1.008 4.989,0 60.48,40.395 88.273,131.946 88.227,205.934 -10e-4,2.011 -1.34,3.778 -3.276,4.321"/></g></g></g></g></svg>